name rise31.4854peak64.571fall78.6902.mot
datacolumns 19
datarows 35
range 13.16328400000000 13.21995800000000
endheader
time	ground_force1_vx	ground_force1_vy	ground_force1_vz	ground_force1_px	ground_force1_py	ground_force1_pz	ground_force2_vx	ground_force2_vy	ground_force2_vz	ground_force2_px	ground_force2_py	ground_force2_pz	ground_torque1_x	ground_torque1_y	ground_torque1_z	ground_torque2_x	ground_torque2_y	ground_torque2_z	
13.16328400000000	-5.11766800000000	46.46090100000000	-13.24241200000000	0.32878600000000	0.00000000000000	0.09070000000000	-40.38608400000000	801.20847100000003	-52.16225200000000	0.12392900000000	0.00000000000000	-0.08218800000000	0.00000000000000	-9.20739300000000	0.00000000000000	0.00000000000000	-17.60447300000000	0.00000000000000	
13.16495400000000	-5.39917800000000	53.34319600000000	-14.61511800000000	0.33220600000000	0.00000000000000	0.09195900000000	-41.10787300000000	798.88982299999998	-51.85181800000000	0.12318400000000	0.00000000000000	-0.08206800000000	0.00000000000000	-10.25120800000000	0.00000000000000	0.00000000000000	-17.57330400000000	0.00000000000000	
13.16661700000000	-5.55647700000000	60.21500200000000	-15.83295700000000	0.33536000000000	0.00000000000000	0.09311300000000	-41.86034600000000	796.45740899999998	-51.52301900000000	0.12243500000000	0.00000000000000	-0.08194500000000	0.00000000000000	-11.20415200000000	0.00000000000000	0.00000000000000	-17.54640400000000	0.00000000000000	
13.16828200000000	-5.58098800000000	67.00857499999999	-16.87524300000000	0.33828900000000	0.00000000000000	0.09417600000000	-42.64307100000000	793.90927299999998	-51.17575700000000	0.12168400000000	0.00000000000000	-0.08181900000000	0.00000000000000	-12.05065500000000	0.00000000000000	0.00000000000000	-17.52375800000000	0.00000000000000	
13.16995500000000	-5.46968200000000	73.68007299999999	-17.73166300000000	0.34102700000000	0.00000000000000	0.09516300000000	-43.45547900000000	791.24337900000000	-50.80994000000000	0.12093000000000	0.00000000000000	-0.08169000000000	0.00000000000000	-12.78219100000000	0.00000000000000	0.00000000000000	-17.50532600000000	0.00000000000000	
13.17162500000000	-5.22454000000000	80.20932000000001	-18.40156400000000	0.34360000000000	0.00000000000000	0.09608200000000	-44.29686300000000	788.45761900000002	-50.42548700000000	0.12017400000000	0.00000000000000	-0.08155800000000	0.00000000000000	-13.39690900000000	0.00000000000000	0.00000000000000	-17.49104200000000	0.00000000000000	
13.17328800000000	-4.85170000000000	86.59765700000000	-18.89257600000000	0.34603000000000	0.00000000000000	0.09694300000000	-45.16637500000000	785.54981999999995	-50.02232500000000	0.11941800000000	0.00000000000000	-0.08142300000000	0.00000000000000	-13.89877800000000	0.00000000000000	0.00000000000000	-17.48081200000000	0.00000000000000	
13.17495300000000	-4.36042100000000	92.86439600000000	-19.21879500000000	0.34833600000000	0.00000000000000	0.09775200000000	-46.06302600000000	782.51774300000000	-49.60039200000000	0.11866000000000	0.00000000000000	-0.08128500000000	0.00000000000000	-14.29639400000000	0.00000000000000	0.00000000000000	-17.47451600000000	0.00000000000000	
13.17662000000000	-3.76196700000000	99.04241900000000	-19.39874100000000	0.35053300000000	0.00000000000000	0.09851600000000	-46.98568700000000	779.35909400000003	-49.15963800000000	0.11790300000000	0.00000000000000	-0.08114300000000	0.00000000000000	-14.60162000000000	0.00000000000000	0.00000000000000	-17.47200600000000	0.00000000000000	
13.17828600000000	-3.06853000000000	105.17342200000000	-19.45332300000000	0.35263400000000	0.00000000000000	0.09923900000000	-47.93308900000000	776.07153200000005	-48.70002500000000	0.11714600000000	0.00000000000000	-0.08099900000000	0.00000000000000	-14.82818900000000	0.00000000000000	0.00000000000000	-17.47310900000000	0.00000000000000	
13.17995200000000	-2.29226500000000	111.30325800000000	-19.40395200000000	0.35464800000000	0.00000000000000	0.09992600000000	-48.90382200000000	772.65267200000005	-48.22153200000000	0.11639000000000	0.00000000000000	-0.08085200000000	0.00000000000000	-14.99039100000000	0.00000000000000	0.00000000000000	-17.47762300000000	0.00000000000000	
13.18162200000000	-1.44450300000000	117.47774400000000	-19.27094300000000	0.35658500000000	0.00000000000000	0.10058000000000	-49.89634000000000	769.10009900000000	-47.72415000000000	0.11563700000000	0.00000000000000	-0.08070100000000	0.00000000000000	-15.10194500000000	0.00000000000000	0.00000000000000	-17.48532200000000	0.00000000000000	
13.18328500000000	-0.53515800000000	123.73917000000000	-19.07227300000000	0.35845200000000	0.00000000000000	0.10120400000000	-50.90895900000000	765.41137400000002	-47.20789100000000	0.11488600000000	0.00000000000000	-0.08054700000000	0.00000000000000	-15.17509700000000	0.00000000000000	0.00000000000000	-17.49595400000000	0.00000000000000	
13.18495000000000	0.42764200000000	130.12365500000001	-18.82273500000000	0.36025500000000	0.00000000000000	0.10180200000000	-51.93986300000000	761.58404499999995	-46.67278300000000	0.11413800000000	0.00000000000000	-0.08039000000000	0.00000000000000	-15.21999600000000	0.00000000000000	0.00000000000000	-17.50924000000000	0.00000000000000	
13.18662200000000	1.43772200000000	136.65941100000001	-18.53347700000000	0.36199900000000	0.00000000000000	0.10237600000000	-52.98710600000000	757.61565599999994	-46.11887800000000	0.11339500000000	0.00000000000000	-0.08022900000000	0.00000000000000	-15.24432900000000	0.00000000000000	0.00000000000000	-17.52487900000000	0.00000000000000	
13.18828300000000	2.49084200000000	143.36588699999999	-18.21190500000000	0.36368900000000	0.00000000000000	0.10292700000000	-54.04861400000000	753.50376000000006	-45.54624900000000	0.11265600000000	0.00000000000000	-0.08006500000000	0.00000000000000	-15.25320600000000	0.00000000000000	0.00000000000000	-17.54254400000000	0.00000000000000	
13.18994900000000	3.58454300000000	150.25367700000001	-17.86187200000000	0.36532700000000	0.00000000000000	0.10345800000000	-55.12219400000000	749.24593100000004	-44.95499100000000	0.11192300000000	0.00000000000000	-0.07989700000000	0.00000000000000	-15.24925600000000	0.00000000000000	0.00000000000000	-17.56189000000000	0.00000000000000	
13.19161900000000	4.71786700000000	157.32508700000000	-17.48410900000000	0.36691600000000	0.00000000000000	0.10396900000000	-56.20553200000000	744.83977400000003	-44.34522900000000	0.11119600000000	0.00000000000000	-0.07972600000000	0.00000000000000	-15.23290100000000	0.00000000000000	0.00000000000000	-17.58254400000000	0.00000000000000	
13.19328400000000	5.89102200000000	164.57517600000000	-17.07680000000000	0.36845900000000	0.00000000000000	0.10446300000000	-57.29620500000000	740.28294000000005	-43.71711400000000	0.11047600000000	0.00000000000000	-0.07955200000000	0.00000000000000	-15.20273200000000	0.00000000000000	0.00000000000000	-17.60411900000000	0.00000000000000	
13.19495500000000	7.10501200000000	171.99311800000001	-16.63625400000000	0.36995800000000	0.00000000000000	0.10494100000000	-58.39168300000000	735.57314199999996	-43.07082600000000	0.10976300000000	0.00000000000000	-0.07937400000000	0.00000000000000	-15.15596000000000	0.00000000000000	0.00000000000000	-17.62620600000000	0.00000000000000	
13.19661800000000	8.36126800000000	179.56371600000000	-16.15758700000000	0.37141200000000	0.00000000000000	0.10540400000000	-59.48933700000000	730.70816400000001	-42.40657700000000	0.10905900000000	0.00000000000000	-0.07919200000000	0.00000000000000	-15.08889300000000	0.00000000000000	0.00000000000000	-17.64838000000000	0.00000000000000	
13.19828900000000	9.66131000000000	187.26894100000001	-15.63537100000000	0.37282500000000	0.00000000000000	0.10585200000000	-60.58644600000000	725.68588000000000	-41.72461300000000	0.10836300000000	0.00000000000000	-0.07900700000000	0.00000000000000	-14.99738900000000	0.00000000000000	0.00000000000000	-17.67019800000000	0.00000000000000	
13.19995500000000	11.00645900000000	195.08935700000001	-15.06421100000000	0.37419400000000	0.00000000000000	0.10628700000000	-61.68020300000000	720.50427300000001	-41.02521100000000	0.10767700000000	0.00000000000000	-0.07881800000000	0.00000000000000	-14.87726400000000	0.00000000000000	0.00000000000000	-17.69120700000000	0.00000000000000	
13.20161400000000	12.39761100000000	203.00538100000000	-14.43921200000000	0.37552200000000	0.00000000000000	0.10671000000000	-62.76772600000000	715.16144599999996	-40.30868600000000	0.10700100000000	0.00000000000000	-0.07862600000000	0.00000000000000	-14.72462900000000	0.00000000000000	0.00000000000000	-17.71093800000000	0.00000000000000	
13.20328300000000	13.83507400000000	210.99828099999999	-13.75633600000000	0.37680800000000	0.00000000000000	0.10712000000000	-63.84606400000000	709.65563999999995	-39.57538900000000	0.10633400000000	0.00000000000000	-0.07843000000000	0.00000000000000	-14.53615600000000	0.00000000000000	0.00000000000000	-17.72891200000000	0.00000000000000	
13.20494700000000	15.31847300000000	219.05092700000000	-13.01262700000000	0.37805100000000	0.00000000000000	0.10751900000000	-64.91220700000000	703.98525600000005	-38.82570800000000	0.10567900000000	0.00000000000000	-0.07823000000000	0.00000000000000	-14.30924900000000	0.00000000000000	0.00000000000000	-17.74464500000000	0.00000000000000	
13.20662200000000	16.84671800000000	227.14826299999999	-12.20633000000000	0.37925200000000	0.00000000000000	0.10790800000000	-65.96309400000000	698.14886899999999	-38.06007000000000	0.10503500000000	0.00000000000000	-0.07802700000000	0.00000000000000	-14.04213900000000	0.00000000000000	0.00000000000000	-17.75764100000000	0.00000000000000	
13.20828900000000	18.41801600000000	235.27753400000000	-11.33690400000000	0.38040800000000	0.00000000000000	0.10828600000000	-66.99562200000000	692.14524400000005	-37.27894200000000	0.10440200000000	0.00000000000000	-0.07782000000000	0.00000000000000	-13.73390600000000	0.00000000000000	0.00000000000000	-17.76740500000000	0.00000000000000	
13.20994800000000	20.02993600000000	243.42830300000000	-10.40495900000000	0.38152000000000	0.00000000000000	0.10865400000000	-68.00665900000000	685.97335699999996	-36.48282900000000	0.10378100000000	0.00000000000000	-0.07761000000000	0.00000000000000	-13.38444700000000	0.00000000000000	0.00000000000000	-17.77343400000000	0.00000000000000	
13.21161500000000	21.67949100000000	251.59228999999999	-9.41212100000000	0.38258700000000	0.00000000000000	0.10901300000000	-68.99305099999999	679.63240900000005	-35.67227600000000	0.10317200000000	0.00000000000000	-0.07739500000000	0.00000000000000	-12.99438900000000	0.00000000000000	0.00000000000000	-17.77522800000000	0.00000000000000	
13.21328500000000	23.36324100000000	259.76309400000002	-8.36086900000000	0.38360700000000	0.00000000000000	0.10936300000000	-69.95163200000000	673.12183900000002	-34.84787000000000	0.10257500000000	0.00000000000000	-0.07717700000000	0.00000000000000	-12.56497800000000	0.00000000000000	0.00000000000000	-17.77228900000000	0.00000000000000	
13.21495200000000	25.07740900000000	267.93583599999999	-7.25434200000000	0.38457900000000	0.00000000000000	0.10970400000000	-70.87923499999999	666.44134199999996	-34.01023700000000	0.10199000000000	0.00000000000000	-0.07695600000000	0.00000000000000	-12.09795200000000	0.00000000000000	0.00000000000000	-17.76412000000000	0.00000000000000	
13.21662300000000	26.81798700000000	276.10677399999997	-6.09615700000000	0.38550200000000	0.00000000000000	0.11003700000000	-71.77270500000000	659.59087499999998	-33.16004500000000	0.10141700000000	0.00000000000000	-0.07673100000000	0.00000000000000	-11.59540900000000	0.00000000000000	0.00000000000000	-17.75023200000000	0.00000000000000	
13.21828200000000	28.58083400000000	284.27291800000000	-4.89022100000000	0.38637400000000	0.00000000000000	0.11036100000000	-72.62890400000001	652.57066899999995	-32.29800100000000	0.10085600000000	0.00000000000000	-0.07650200000000	0.00000000000000	-11.05968000000000	0.00000000000000	0.00000000000000	-17.73014400000000	0.00000000000000	
13.21995800000000	30.36176500000000	292.43168300000002	-3.64058500000000	0.38719400000000	0.00000000000000	0.11067800000000	-73.44473000000001	645.38123900000005	-31.42485500000000	0.10030700000000	0.00000000000000	-0.07627000000000	0.00000000000000	-10.49322200000000	0.00000000000000	0.00000000000000	-17.70338500000000	0.00000000000000	
